<svg width="242" height="139" viewBox="0 0 242 139" fill="none" xmlns="http://www.w3.org/2000/svg">
<path d="M1.91259 0C2.80094 0 3.53189 0.678508 3.61514 1.54633L3.62315 1.71052V136.708C3.62315 137.653 2.85681 138.418 1.91259 138.418C1.02309 138.418 0.292095 137.74 0.208847 136.873L0.202026 136.708V1.71052C0.202026 0.766296 0.967217 0 1.91259 0Z" fill="#373A3E"/>
<path d="M49.5459 0C50.4354 0 51.1652 0.678508 51.2484 1.54633L51.2564 1.71052V136.708C51.2564 137.653 50.4901 138.418 49.5459 138.418C48.6564 138.418 47.9265 137.74 47.8433 136.873L47.8353 136.708V1.71052C47.8353 0.766296 48.6017 0 49.5459 0Z" fill="#373A3E"/>
<path d="M97.1781 0C98.0676 0 98.7986 0.678508 98.8818 1.54633L98.8886 1.71052V136.708C98.8886 137.653 98.1235 138.418 97.1781 138.418C96.2897 138.418 95.5588 137.74 95.4755 136.873L95.4675 136.708V1.71052C95.4675 0.766296 96.2339 0 97.1781 0Z" fill="#373A3E"/>
<path d="M144.822 0C145.711 0 146.441 0.678508 146.524 1.54633L146.532 1.71052V136.708C146.532 137.653 145.766 138.418 144.822 138.418C143.932 138.418 143.202 137.74 143.119 136.873L143.111 136.708V1.71052C143.111 0.766296 143.878 0 144.822 0Z" fill="#373A3E"/>
<path d="M192.454 0C193.344 0 194.075 0.678508 194.157 1.54633L194.165 1.71052V136.708C194.165 137.653 193.399 138.418 192.454 138.418C191.566 138.418 190.835 137.74 190.751 136.873L190.744 136.708V1.71052C190.744 0.766296 191.51 0 192.454 0Z" fill="#373A3E"/>
<path d="M240.087 0C240.977 0 241.707 0.678508 241.79 1.54633L241.798 1.71052V136.708C241.798 137.653 241.032 138.418 240.087 138.418C239.198 138.418 238.467 137.74 238.385 136.873L238.377 136.708V1.71052C238.377 0.766296 239.142 0 240.087 0Z" fill="#373A3E"/>
<path d="M240.087 0C241.032 0 241.798 0.766296 241.798 1.71052C241.798 2.60002 241.12 3.33104 240.252 3.41315L240.087 3.42108H1.91259C0.968357 3.42108 0.202026 2.65589 0.202026 1.71052C0.202026 0.822174 0.880526 0.0912167 1.74721 0.00796952L1.91259 0H240.087Z" fill="#373A3E"/>
<path d="M240.087 27.0042C241.032 27.0042 241.798 27.7693 241.798 28.7147C241.798 29.6042 241.12 30.334 240.252 30.4173L240.087 30.4253H1.91259C0.968357 30.4253 0.202026 29.6589 0.202026 28.7147C0.202026 27.8252 0.880526 27.0942 1.74721 27.0121L1.91259 27.0042H240.087Z" fill="#373A3E"/>
<path d="M240.087 53.9968C241.032 53.9968 241.798 54.762 241.798 55.7074C241.798 56.5957 241.12 57.3267 240.252 57.4099L240.087 57.4179H1.91259C0.968357 57.4179 0.202026 56.6516 0.202026 55.7074C0.202026 54.8179 0.880526 54.0869 1.74721 54.0048L1.91259 53.9968H240.087Z" fill="#373A3E"/>
<path d="M240.087 81.0007C241.032 81.0007 241.798 81.7671 241.798 82.7113C241.798 83.6008 241.12 84.3318 240.252 84.415L240.087 84.4219H1.91259C0.968357 84.4219 0.202026 83.6567 0.202026 82.7113C0.202026 81.8229 0.880526 81.092 1.74721 81.0087L1.91259 81.0007H240.087Z" fill="#373A3E"/>
<path d="M240.087 107.993C241.032 107.993 241.798 108.76 241.798 109.704C241.798 110.593 241.12 111.324 240.252 111.408L240.087 111.415H1.91259C0.968357 111.415 0.202026 110.649 0.202026 109.704C0.202026 108.816 0.880526 108.085 1.74721 108.001L1.91259 107.993H240.087Z" fill="#373A3E"/>
<path d="M240.087 134.997C241.032 134.997 241.798 135.764 241.798 136.708C241.798 137.597 241.12 138.327 240.252 138.411L240.087 138.419H1.91259C0.968357 138.419 0.202026 137.652 0.202026 136.708C0.202026 135.819 0.880526 135.089 1.74721 135.005L1.91259 134.997H240.087Z" fill="#373A3E"/>
<path fill-rule="evenodd" clip-rule="evenodd" d="M49.546 55.7073H97.1794V28.7147H49.546V55.7073Z" fill="#373A3E"/>
<path fill-rule="evenodd" clip-rule="evenodd" d="M144.821 82.7056H192.454V55.713H144.821V82.7056Z" fill="#373A3E"/>
<path fill-rule="evenodd" clip-rule="evenodd" d="M1.91248 136.697H49.5459V109.704H1.91248V136.697Z" fill="#373A3E"/>
</svg>
